<svg width="253" height="46" fill="none" xmlns="http://www.w3.org/2000/svg"><g clip-path="url(#clip0_10_2065)" fill="#002349"><path d="M0 21.828c0-6.69 3.762-10.94 8.941-10.94 4.052 0 6.685 2.27 7.785 6.519l-1.968.459c-1.013-3.503-2.662-5.111-5.846-5.111-3.703 0-6.857 3.015-6.857 8.987 0 5.943 2.807 9.36 6.916 9.36 3.588 0 5.96-2.498 5.932-6.805h-5.18v-1.752h7.176v9.992h-1.852v-3.244h-.058a6.482 6.482 0 01-2.542 2.75 6.554 6.554 0 01-3.65.896C3.183 32.94 0 28.202 0 21.828zm21.271-10.049h2.113v2.124h-2.113V11.78zm.058 5.628h1.997v15.13H21.33v-15.13zm8.242 13.063v2.068h-1.997V11.29h1.997v8.326a6.645 6.645 0 012.264-1.815 6.696 6.696 0 012.829-.682c3.502 0 6.28 2.555 6.28 7.837 0 5.283-2.807 7.839-6.453 7.839a6.859 6.859 0 01-2.704-.654 6.81 6.81 0 01-2.216-1.672zm9.376-5.484c0-4.191-2.083-6.173-4.63-6.173-1.88 0-3.298.976-4.745 2.498v7.35c1.504 1.58 2.98 2.47 4.745 2.47 2.691 0 4.63-1.867 4.63-6.145zm4.186 5.139l1.273-1.148a5.952 5.952 0 002.119 1.635 6 6 0 002.627.547c2.604 0 3.964-.948 3.964-2.641 0-1.666-1.216-2.326-4.196-3.015-3.502-.861-5.295-1.78-5.295-4.421 0-2.154 1.88-3.962 5.18-3.962a7.55 7.55 0 013.053.5 7.501 7.501 0 012.59 1.682l-1.13 1.32a6.082 6.082 0 00-2.032-1.392 6.124 6.124 0 00-2.423-.474c-2.373 0-3.3 1.091-3.3 2.24 0 1.464 1.042 2.067 3.704 2.698 3.82.919 5.788 1.838 5.788 4.795 0 2.757-2.489 4.336-5.933 4.336a7.362 7.362 0 01-3.318-.644 7.306 7.306 0 01-2.671-2.055zm14.439-5.139c0-5.053 3.154-7.866 6.916-7.866 3.733 0 6.887 2.813 6.887 7.866 0 5.025-3.154 7.867-6.887 7.867-3.733 0-6.916-2.842-6.916-7.867zm11.806-.029c0-3.302-1.678-6.144-4.89-6.144-3.096 0-4.92 2.585-4.92 6.144 0 3.36 1.65 6.202 4.92 6.202 3.067 0 4.89-2.555 4.89-6.202zm5.397-7.55h1.997v2.382a8.354 8.354 0 012.64-1.91 8.413 8.413 0 013.177-.76c3.01 0 4.543 1.666 4.543 4.48v10.938h-1.997V21.971c0-2.124-.955-3.158-3.038-3.158-1.968 0-3.617 1.005-5.325 2.642v11.082h-1.997v-15.13zM103.529 0h-.701v45.86h.701V0zm135.705 6.953l-3.183 7.646h.747l6.049-7.646h-3.613zM126.657 25.484a11.549 11.549 0 01-5.161-1.178l-1.322 1.178h-.612l-.408-7.477.712-.067c2.14 4.85 4.652 6.4 6.995 6.4a3.606 3.606 0 002.779-.985 3.552 3.552 0 001.092-2.72c0-2.022-.782-2.999-3.973-4.313-1.086-.438-2.343-.875-3.395-1.38-2.377-1.18-3.633-3.033-3.633-5.491 0-4.01 3.497-6.435 6.926-6.435a7.461 7.461 0 013.973 1.112l1.324-1.145h.577l.578 6.602-.68.101c-1.867-3.705-3.87-5.525-6.076-5.525a3.09 3.09 0 00-2.36.909 3.036 3.036 0 00-.867 2.359c0 1.583.681 2.797 3.089 3.84 1.189.54 2.583 1.012 3.838 1.617 2.749 1.315 4.04 3.032 4.04 5.525 0 4.445-3.768 7.073-7.436 7.073zm17.962-15.294c-2.377 0-3.836 2.628-3.836 7.244 0 4.548 1.562 7.14 3.972 7.14 2.479 0 3.837-2.625 3.837-7.241 0-4.547-1.46-7.142-3.973-7.142zm-.136 15.33c-5.16 0-7.706-3.672-7.706-8.154 0-4.144 2.918-8.118 8.147-8.118 5.16 0 7.64 3.638 7.64 8.085 0 4.177-2.853 8.187-8.081 8.187zm15.448-.137c-2.682 0-3.53-1.313-3.53-3.738V11.572h-2.512v-.47l3.123-2.46 2.478-3.201h.509V9.82h5.162v1.752h-5.162v8.726c0 1.347.204 2.155.883 2.627.75.429 1.616.618 2.479.54.543 0 1.223-.035 1.868-.07l.034.473a11.354 11.354 0 01-5.332 1.515zm15.855-13.575a7.468 7.468 0 00-3.531.843V23.8l1.901.707v.47h-7.673v-.47l2.139-.707V3.454l-2.343-1.516V1.6L172.12.017l.135.102v11.79l.137.067c2.002-1.886 3.835-2.728 5.669-2.728 3.055 0 4.347 2.291 4.347 4.683v9.87l2.14.707v.47h-7.676v-.47l1.904-.707v-8.49c0-2.19-.884-3.503-2.99-3.503zm20.544 3.268c-.135-3.167-1.053-4.885-3.056-4.885-1.97 0-3.497 2.054-3.667 5.188l6.723-.303zm-6.756 1.145c0 4.279 1.221 7.075 5.059 7.075 1.762-.035 3.502-.4 5.126-1.08l.203.406c-2.07 1.785-4.378 2.898-6.552 2.898-4.651 0-7.709-3.167-7.709-7.85 0-4.817 3.669-8.422 7.81-8.422 4.484 0 6.655 2.997 6.621 6.973h-10.558zm20.167-4.615a6.791 6.791 0 00-2.681.54v10.677a5.106 5.106 0 001.69 1.15c.636.267 1.32.403 2.01.4 2.003 0 3.667-1.785 3.667-6.535 0-4.177-1.799-6.232-4.686-6.232zm-.576 13.914a23.272 23.272 0 01-5.738-.877V3.454l-2.376-1.516V1.6l5.873-1.583.136.101v11.285l.138.068a6.918 6.918 0 012.233-1.608 6.969 6.969 0 012.688-.616c3.226 0 6.145 2.931 6.145 7.747 0 4.818-3.666 8.525-9.099 8.525zm18.4.502c-1.697 4.145-3.291 5.964-5.398 5.964-1.799 0-2.647-1.045-2.647-2.123a2 2 0 01.628-1.367 2.03 2.03 0 011.408-.552c1.155 0 1.833.605 2.649 1.616a13.083 13.083 0 001.867-2.865l.577-1.277-6.008-14.384-2.073-.809v-.438h8.284v.438l-2.172.809 3.666 9.87h.17l3.328-9.635-1.968-1.043v-.44h5.838v.44l-2.207 1.11-5.942 14.686zm19.357-.502a13.492 13.492 0 01-5.025-.912l-.034-4.446.68-.066c1.832 3.2 3.226 4.412 5.024 4.412a2.425 2.425 0 001.883-.692 2.377 2.377 0 00.698-1.867c0-1.752-1.8-2.426-3.735-3.201-2.139-.91-4.414-1.92-4.414-4.716 0-2.661 2.376-4.784 5.84-4.784a14.64 14.64 0 014.107.607l.102 4.008-.644.169c-1.664-2.729-2.75-3.773-4.313-3.773a2.155 2.155 0 00-1.635.571 2.129 2.129 0 00-.673 1.585c0 1.751 1.833 2.46 3.767 3.234 2.141.876 4.449 1.886 4.449 4.75 0 3.133-2.784 5.12-6.077 5.12zM119.588 45.853h.759v-7.84h-.759v7.84zm3.49 0h.717v-6.664h.022l4.494 6.664h.673v-7.84h-.716v6.462h-.021l-4.357-6.462h-.812v7.84zm10.166 0h.757v-7.142h2.552v-.698h-5.862v.698h2.553v7.142zm5.017 0h4.943v-.69h-4.185V42.05h2.958v-.678h-2.958v-2.66h3.961v-.698h-4.719v7.84zm6.995 0h.746v-3.519h1.964l1.933 3.52h.855l-1.997-3.604a2.032 2.032 0 001.384-.673c.353-.397.535-.916.505-1.445 0-1.377-.983-2.119-2.744-2.119h-2.646v7.84zm.746-4.186V38.7h1.836c1.324 0 2.05.383 2.05 1.464 0 1.134-.737 1.503-2.039 1.503h-1.847zm7.271 4.186h.716v-6.664h.021l4.495 6.664h.672v-7.84h-.716v6.462h-.021l-4.355-6.462h-.812v7.84zm7.944 0h.737l.843-2.416H166l.843 2.416h.791l-2.798-7.872h-.822l-2.797 7.872zm1.814-3.083l1.357-3.899h.021l1.356 3.899h-2.734zm7.645 3.083h.759v-7.142h2.552v-.698h-5.864v.698h2.553v7.142zm5.125 0h.757v-7.84h-.757v7.84zm6.363.147c1.933 0 3.331-1.61 3.331-4.067 0-2.459-1.398-4.068-3.331-4.068s-3.331 1.611-3.331 4.068c0 2.456 1.399 4.067 3.331 4.067zm0-.678c-1.495 0-2.573-1.26-2.573-3.389 0-2.13 1.078-3.381 2.573-3.381 1.495 0 2.572 1.251 2.572 3.381s-1.077 3.39-2.572 3.39zm5.756.531h.715v-6.664h.022l4.493 6.664h.673v-7.84h-.716v6.462h-.021l-4.355-6.462h-.811v7.84zm7.955 0h.735l.844-2.416h3.202l.843 2.416h.791l-2.797-7.872h-.822l-2.796 7.872zm1.813-3.083l1.357-3.899h.022l1.355 3.899h-2.734zm6.705 3.083h4.623v-.69h-3.865v-7.15h-.758v7.84zm9.15 0h.746v-3.519h1.966l1.932 3.52h.852l-1.994-3.604a2.03 2.03 0 001.383-.673 2 2 0 00.506-1.445c0-1.377-.981-2.119-2.743-2.119h-2.648v7.84zm.746-4.186V38.7h1.837c1.325 0 2.05.383 2.05 1.464 0 1.134-.737 1.503-2.038 1.503h-1.849zm7.058 4.186h4.944v-.69h-4.186V42.05h2.957v-.678h-2.957v-2.66h3.962v-.698h-4.72v7.84zm5.915 0h.736l.845-2.416h3.203l.843 2.416h.79l-2.797-7.872h-.822l-2.798 7.872zm1.816-3.083l1.356-3.899h.021l1.355 3.899h-2.732zm6.513 3.083h4.621v-.69h-3.864v-7.15h-.757v7.84zm6.736 0h.757v-7.142h2.553v-.698h-5.861v.698h2.551v7.142zm6.822 0h.758v-3.454l2.659-4.386h-.813l-2.209 3.74-2.221-3.74h-.821l2.647 4.386v3.454z"/></g><defs><clipPath id="clip0_10_2065"><path fill="#fff" d="M0 0h253v46H0z"/></clipPath></defs></svg>