<svg width="40" height="40" viewBox="0 0 40 40" fill="none" xmlns="http://www.w3.org/2000/svg">
<path d="M29.9537 33.9944H9.1461C8.07446 33.9944 7.04671 33.5687 6.28894 32.8109C5.53118 32.0531 5.10547 31.0254 5.10547 29.9537V9.1461C5.10547 8.07446 5.53118 7.04671 6.28894 6.28894C7.04671 5.53118 8.07446 5.10547 9.1461 5.10547H29.9537C31.0254 5.10547 32.0531 5.53118 32.8109 6.28894C33.5687 7.04671 33.9944 8.07446 33.9944 9.1461V29.9537C33.9944 31.0254 33.5687 32.0531 32.8109 32.8109C32.0531 33.5687 31.0254 33.9944 29.9537 33.9944ZM9.1461 6.72172C8.50311 6.72172 7.88646 6.97715 7.4318 7.4318C6.97715 7.88646 6.72172 8.50311 6.72172 9.1461V29.9537C6.72172 30.5967 6.97715 31.2134 7.4318 31.668C7.88646 32.1227 8.50311 32.3781 9.1461 32.3781H29.9537C30.5967 32.3781 31.2134 32.1227 31.668 31.668C32.1227 31.2134 32.3781 30.5967 32.3781 29.9537V9.1461C32.3781 8.50311 32.1227 7.88646 31.668 7.4318C31.2134 6.97715 30.5967 6.72172 29.9537 6.72172H9.1461Z" fill="#AD8F49"/>
<path d="M20.0016 27.6565C18.4872 27.6549 17.0073 27.2043 15.7489 26.3617C14.4906 25.5191 13.5103 24.3224 12.932 22.9227C12.3537 21.5231 12.2033 19.9835 12.4999 18.4984C12.7964 17.0133 13.5266 15.6495 14.5982 14.5794C15.6697 13.5093 17.0345 12.7808 18.5199 12.4862C20.0054 12.1916 21.5448 12.3439 22.9437 12.9241C24.3426 13.5042 25.538 14.4861 26.379 15.7455C27.2199 17.005 27.6686 18.4855 27.6682 19.9998C27.6656 22.0314 26.8567 23.9789 25.4192 25.4145C23.9817 26.8501 22.0332 27.6565 20.0016 27.6565ZM20.0016 13.9998C18.8172 14.0015 17.66 14.3541 16.6759 15.0131C15.6919 15.6721 14.9252 16.608 14.4727 17.7024C14.0203 18.7969 13.9023 20.001 14.1338 21.1625C14.3652 22.324 14.9357 23.3908 15.7732 24.2283C16.6106 25.0657 17.6775 25.6362 18.8389 25.8676C20.0004 26.0991 21.2045 25.9811 22.299 25.5287C23.3935 25.0762 24.3293 24.3095 24.9883 23.3255C25.6473 22.3414 25.9999 21.1842 26.0016 19.9998C26.0016 18.4085 25.3694 16.8824 24.2442 15.7572C23.119 14.632 21.5929 13.9998 20.0016 13.9998Z" fill="#AD8F49"/>
<path d="M28.6667 13.1751C29.6562 13.1751 30.4583 12.373 30.4583 11.3835C30.4583 10.394 29.6562 9.5918 28.6667 9.5918C27.6772 9.5918 26.875 10.394 26.875 11.3835C26.875 12.373 27.6772 13.1751 28.6667 13.1751Z" fill="#AD8F49"/>
</svg>
