<svg width="40" height="40" viewBox="0 0 40 40" fill="none" xmlns="http://www.w3.org/2000/svg">
<path d="M20.4074 16.2044C21.9794 14.5982 24.0262 13.5473 26.4074 13.5473C28.908 13.5473 31.3062 14.5407 33.0744 16.3089C34.8426 18.0771 35.8359 20.4753 35.8359 22.9759V35.833H32.4074V22.9759C32.4074 21.3846 31.7752 19.8584 30.65 18.7332C29.5248 17.608 27.9987 16.9759 26.4074 16.9759C24.8161 16.9759 23.2899 17.608 22.1647 18.7332C21.0395 19.8584 20.4074 21.3846 20.4074 22.9759V35.833H16.9788V14.4044H20.4074V16.2044ZM8.40737 10.9759C7.72538 10.9759 7.07133 10.7049 6.58909 10.2227C6.10686 9.74048 5.83594 9.08642 5.83594 8.40444C5.83594 7.72245 6.10686 7.0684 6.58909 6.58616C7.07133 6.10393 7.72538 5.83301 8.40737 5.83301C9.08935 5.83301 9.7434 6.10393 10.2256 6.58616C10.7079 7.0684 10.9788 7.72245 10.9788 8.40444C10.9788 9.08642 10.7079 9.74048 10.2256 10.2227C9.7434 10.7049 9.08935 10.9759 8.40737 10.9759ZM6.69308 14.4044H10.1217V35.833H6.69308V14.4044Z" fill="#AD8F49"/>
</svg>
