<svg width="40" height="40" viewBox="0 0 40 40" fill="none" xmlns="http://www.w3.org/2000/svg">
<path d="M21.668 16.6667H29.168L28.3346 20H21.668V35H18.3346V20H11.668V16.6667H18.3346V13.5467C18.3346 10.575 18.6446 9.49667 19.2246 8.41C19.793 7.33635 20.671 6.45835 21.7446 5.89C22.8313 5.31 23.9096 5 26.8813 5C27.7513 5 28.5146 5.08333 29.168 5.25V8.33333H26.8813C24.6746 8.33333 24.003 8.46333 23.3163 8.83C22.8234 9.08751 22.4214 9.49008 22.1646 9.98333C21.798 10.6683 21.668 11.34 21.668 13.5467V16.6667Z" fill="#AD8F49"/>
</svg>
