<svg width="16" height="16" viewBox="0 0 16 16" fill="none" xmlns="http://www.w3.org/2000/svg">
<path d="M8.66602 6.66667H11.666L11.3327 8H8.66602V14H7.33268V8H4.66602V6.66667H7.33268V5.41867C7.33268 4.23 7.45668 3.79867 7.68868 3.364C7.91602 2.93454 8.26722 2.58334 8.69668 2.356C9.13135 2.124 9.56268 2 10.7513 2C11.0993 2 11.4047 2.03333 11.666 2.1V3.33333H10.7513C9.86868 3.33333 9.60002 3.38533 9.32535 3.532C9.1282 3.635 8.9674 3.79603 8.86468 3.99333C8.71802 4.26733 8.66602 4.536 8.66602 5.41867V6.66667Z" fill="#05172F"/>
</svg>
