<svg width="16" height="16" viewBox="0 0 16 16" fill="none" xmlns="http://www.w3.org/2000/svg">
<path d="M8.16256 6.48158C8.79136 5.83907 9.6101 5.41872 10.5626 5.41872C11.5628 5.41872 12.5221 5.81607 13.2294 6.52335C13.9366 7.23063 14.334 8.18991 14.334 9.19015V14.333H12.9626V9.19015C12.9626 8.55363 12.7097 7.94318 12.2596 7.49309C11.8095 7.04301 11.1991 6.79015 10.5626 6.79015C9.92604 6.79015 9.31559 7.04301 8.8655 7.49309C8.41541 7.94318 8.16256 8.55363 8.16256 9.19015V14.333H6.79113V5.76158H8.16256V6.48158ZM3.36256 4.39015C3.08976 4.39015 2.82814 4.28178 2.63525 4.08889C2.44235 3.89599 2.33398 3.63437 2.33398 3.36158C2.33398 3.08879 2.44235 2.82716 2.63525 2.63427C2.82814 2.44137 3.08976 2.33301 3.36256 2.33301C3.63535 2.33301 3.89697 2.44137 4.08987 2.63427C4.28276 2.82716 4.39113 3.08879 4.39113 3.36158C4.39113 3.63437 4.28276 3.89599 4.08987 4.08889C3.89697 4.28178 3.63535 4.39015 3.36256 4.39015ZM2.67684 5.76158H4.04827V14.333H2.67684V5.76158Z" fill="#05172F"/>
</svg>
