<svg width="18" height="18" viewBox="0 0 18 18" fill="none" xmlns="http://www.w3.org/2000/svg">
<path d="M13.4786 15.2969H4.11516C3.63292 15.2969 3.17043 15.1053 2.82944 14.7643C2.48844 14.4233 2.29688 13.9608 2.29688 13.4786V4.11516C2.29688 3.63292 2.48844 3.17043 2.82944 2.82944C3.17043 2.48844 3.63292 2.29688 4.11516 2.29688H13.4786C13.9608 2.29688 14.4233 2.48844 14.7643 2.82944C15.1053 3.17043 15.2969 3.63292 15.2969 4.11516V13.4786C15.2969 13.9608 15.1053 14.4233 14.7643 14.7643C14.4233 15.1053 13.9608 15.2969 13.4786 15.2969ZM4.11516 3.02419C3.82582 3.02419 3.54832 3.13913 3.34373 3.34373C3.13913 3.54832 3.02419 3.82582 3.02419 4.11516V13.4786C3.02419 13.7679 3.13913 14.0454 3.34373 14.25C3.54832 14.4546 3.82582 14.5696 4.11516 14.5696H13.4786C13.7679 14.5696 14.0454 14.4546 14.25 14.25C14.4546 14.0454 14.5696 13.7679 14.5696 13.4786V4.11516C14.5696 3.82582 14.4546 3.54832 14.25 3.34373C14.0454 3.13913 13.7679 3.02419 13.4786 3.02419H4.11516Z" fill="#05172F"/>
<path d="M8.99914 12.4452C8.31767 12.4445 7.65171 12.2417 7.08545 11.8626C6.5192 11.4834 6.07807 10.9449 5.81783 10.315C5.55758 9.68521 5.48992 8.99236 5.62337 8.32408C5.75683 7.6558 6.08543 7.04209 6.56762 6.56053C7.04981 6.07897 7.66395 5.75118 8.3324 5.61859C9.00085 5.486 9.69361 5.55458 10.3231 5.81564C10.9526 6.0767 11.4905 6.51854 11.869 7.08529C12.2474 7.65204 12.4493 8.31826 12.4491 8.99973C12.4479 9.91395 12.0839 10.7903 11.4371 11.4363C10.7902 12.0824 9.91336 12.4452 8.99914 12.4452ZM8.99914 6.29973C8.46619 6.30048 7.94542 6.45914 7.5026 6.7557C7.05978 7.05225 6.71477 7.47338 6.51117 7.9659C6.30756 8.45843 6.25448 9.00024 6.35864 9.52291C6.46279 10.0456 6.71951 10.5257 7.09636 10.9025C7.47321 11.2794 7.95329 11.5361 8.47596 11.6402C8.99863 11.7444 9.54045 11.6913 10.033 11.4877C10.5255 11.2841 10.9466 10.9391 11.2432 10.4963C11.5397 10.0535 11.6984 9.53268 11.6991 8.99973C11.6991 8.28365 11.4147 7.59689 10.9083 7.09055C10.402 6.5842 9.71523 6.29973 8.99914 6.29973Z" fill="#05172F"/>
<path d="M12.9 5.92891C13.3453 5.92891 13.7062 5.56794 13.7062 5.12266C13.7062 4.67738 13.3453 4.31641 12.9 4.31641C12.4547 4.31641 12.0938 4.67738 12.0938 5.12266C12.0938 5.56794 12.4547 5.92891 12.9 5.92891Z" fill="#05172F"/>
</svg>
